<svg id="visual" viewBox="0 0 960 540" width="960" height="540" xmlns="http://www.w3.org/2000/svg" xmlns:xlink="http://www.w3.org/1999/xlink" version="1.1"><rect x="0" y="0" width="960" height="540" fill="#242038"></rect><path d="M0 118L26.7 121.3C53.3 124.7 106.7 131.3 160 138.5C213.3 145.7 266.7 153.3 320 148.3C373.3 143.3 426.7 125.7 480 117.5C533.3 109.3 586.7 110.7 640 118.5C693.3 126.3 746.7 140.7 800 143.8C853.3 147 906.7 139 933.3 135L960 131L960 0L933.3 0C906.7 0 853.3 0 800 0C746.7 0 693.3 0 640 0C586.7 0 533.3 0 480 0C426.7 0 373.3 0 320 0C266.7 0 213.3 0 160 0C106.7 0 53.3 0 26.7 0L0 0Z" fill="#725ac1"></path><path d="M0 85L26.7 91.2C53.3 97.3 106.7 109.7 160 112.8C213.3 116 266.7 110 320 109.3C373.3 108.7 426.7 113.3 480 118.3C533.3 123.3 586.7 128.7 640 124.7C693.3 120.7 746.7 107.3 800 100.7C853.3 94 906.7 94 933.3 94L960 94L960 0L933.3 0C906.7 0 853.3 0 800 0C746.7 0 693.3 0 640 0C586.7 0 533.3 0 480 0C426.7 0 373.3 0 320 0C266.7 0 213.3 0 160 0C106.7 0 53.3 0 26.7 0L0 0Z" fill="#6351a7"></path><path d="M0 88L26.7 91.7C53.3 95.3 106.7 102.7 160 99.2C213.3 95.7 266.7 81.3 320 79.2C373.3 77 426.7 87 480 87.3C533.3 87.7 586.7 78.3 640 77.7C693.3 77 746.7 85 800 86C853.3 87 906.7 81 933.3 78L960 75L960 0L933.3 0C906.7 0 853.3 0 800 0C746.7 0 693.3 0 640 0C586.7 0 533.3 0 480 0C426.7 0 373.3 0 320 0C266.7 0 213.3 0 160 0C106.7 0 53.3 0 26.7 0L0 0Z" fill="#55478d"></path><path d="M0 79L26.7 74.3C53.3 69.7 106.7 60.3 160 54C213.3 47.7 266.7 44.3 320 47.3C373.3 50.3 426.7 59.7 480 62C533.3 64.3 586.7 59.7 640 55.7C693.3 51.7 746.7 48.3 800 48.7C853.3 49 906.7 53 933.3 55L960 57L960 0L933.3 0C906.7 0 853.3 0 800 0C746.7 0 693.3 0 640 0C586.7 0 533.3 0 480 0C426.7 0 373.3 0 320 0C266.7 0 213.3 0 160 0C106.7 0 53.3 0 26.7 0L0 0Z" fill="#483d74"></path><path d="M0 33L26.7 31C53.3 29 106.7 25 160 22.7C213.3 20.3 266.7 19.7 320 20.8C373.3 22 426.7 25 480 27.7C533.3 30.3 586.7 32.7 640 32.2C693.3 31.7 746.7 28.3 800 27.8C853.3 27.3 906.7 29.7 933.3 30.8L960 32L960 0L933.3 0C906.7 0 853.3 0 800 0C746.7 0 693.3 0 640 0C586.7 0 533.3 0 480 0C426.7 0 373.3 0 320 0C266.7 0 213.3 0 160 0C106.7 0 53.3 0 26.7 0L0 0Z" fill="#3b345b"></path></svg>