<svg id="visual" viewBox="0 0 960 540" width="960" height="540" xmlns="http://www.w3.org/2000/svg" xmlns:xlink="http://www.w3.org/1999/xlink" version="1.1"><rect x="0" y="0" width="960" height="540" fill="#242038"></rect><path d="M0 406L16 398.3C32 390.7 64 375.3 96 381C128 386.7 160 413.3 192 427.8C224 442.3 256 444.7 288 441.2C320 437.7 352 428.3 384 422C416 415.7 448 412.3 480 417.5C512 422.7 544 436.3 576 439.8C608 443.3 640 436.7 672 424.3C704 412 736 394 768 384C800 374 832 372 864 374.7C896 377.3 928 384.7 944 388.3L960 392L960 541L944 541C928 541 896 541 864 541C832 541 800 541 768 541C736 541 704 541 672 541C640 541 608 541 576 541C544 541 512 541 480 541C448 541 416 541 384 541C352 541 320 541 288 541C256 541 224 541 192 541C160 541 128 541 96 541C64 541 32 541 16 541L0 541Z" fill="#725ac1"></path><path d="M0 398L16 402.2C32 406.3 64 414.7 96 417.7C128 420.7 160 418.3 192 420C224 421.7 256 427.3 288 433.3C320 439.3 352 445.7 384 446.8C416 448 448 444 480 441.2C512 438.3 544 436.7 576 427.8C608 419 640 403 672 402.2C704 401.3 736 415.7 768 425.3C800 435 832 440 864 436.7C896 433.3 928 421.7 944 415.8L960 410L960 541L944 541C928 541 896 541 864 541C832 541 800 541 768 541C736 541 704 541 672 541C640 541 608 541 576 541C544 541 512 541 480 541C448 541 416 541 384 541C352 541 320 541 288 541C256 541 224 541 192 541C160 541 128 541 96 541C64 541 32 541 16 541L0 541Z" fill="#5e4d9e"></path><path d="M0 488L16 478C32 468 64 448 96 440.7C128 433.3 160 438.7 192 449.2C224 459.7 256 475.3 288 479.7C320 484 352 477 384 476.7C416 476.3 448 482.7 480 481.2C512 479.7 544 470.3 576 460.8C608 451.3 640 441.7 672 447.8C704 454 736 476 768 480.7C800 485.3 832 472.7 864 470.3C896 468 928 476 944 480L960 484L960 541L944 541C928 541 896 541 864 541C832 541 800 541 768 541C736 541 704 541 672 541C640 541 608 541 576 541C544 541 512 541 480 541C448 541 416 541 384 541C352 541 320 541 288 541C256 541 224 541 192 541C160 541 128 541 96 541C64 541 32 541 16 541L0 541Z" fill="#4c417c"></path><path d="M0 505L16 507.7C32 510.3 64 515.7 96 511.8C128 508 160 495 192 495.5C224 496 256 510 288 509C320 508 352 492 384 486.2C416 480.3 448 484.7 480 492.5C512 500.3 544 511.7 576 517.5C608 523.3 640 523.7 672 515.2C704 506.7 736 489.3 768 481.3C800 473.3 832 474.7 864 477.5C896 480.3 928 484.7 944 486.8L960 489L960 541L944 541C928 541 896 541 864 541C832 541 800 541 768 541C736 541 704 541 672 541C640 541 608 541 576 541C544 541 512 541 480 541C448 541 416 541 384 541C352 541 320 541 288 541C256 541 224 541 192 541C160 541 128 541 96 541C64 541 32 541 16 541L0 541Z" fill="#3b345b"></path></svg>