<svg id="visual" viewBox="0 0 1000 100" width="1000" height="100" xmlns="http://www.w3.org/2000/svg" xmlns:xlink="http://www.w3.org/1999/xlink" version="1.1"><path d="M0 71L15.2 71.7C30.3 72.3 60.7 73.7 91 73.5C121.3 73.3 151.7 71.7 182 71.3C212.3 71 242.7 72 273 73.3C303.3 74.7 333.7 76.3 364 76.7C394.3 77 424.7 76 454.8 75.8C485 75.7 515 76.3 545.2 75.3C575.3 74.3 605.7 71.7 636 71.7C666.3 71.7 696.7 74.3 727 74.3C757.3 74.3 787.7 71.7 818 71.7C848.3 71.7 878.7 74.3 909 74.3C939.3 74.3 969.7 71.7 984.8 70.3L1000 69" fill="none" stroke="#00FFCD" stroke-width="40" stroke-linecap="round" stroke-linejoin="miter"></path></svg>